<svg width="39" height="39" viewBox="0 0 39 39" fill="none" xmlns="http://www.w3.org/2000/svg">
<path d="M28.875 10.125H10.125C9.62772 10.125 9.15081 10.3225 8.79918 10.6742C8.44754 11.0258 8.25 11.5027 8.25 12C8.25 12.4973 8.44754 12.9742 8.79918 13.3258C9.15081 13.6775 9.62772 13.875 10.125 13.875H28.875C29.3723 13.875 29.8492 13.6775 30.2008 13.3258C30.5525 12.9742 30.75 12.4973 30.75 12C30.75 11.5027 30.5525 11.0258 30.2008 10.6742C29.8492 10.3225 29.3723 10.125 28.875 10.125ZM28.875 17.625H10.125C9.62772 17.625 9.15081 17.8225 8.79918 18.1742C8.44754 18.5258 8.25 19.0027 8.25 19.5C8.25 19.9973 8.44754 20.4742 8.79918 20.8258C9.15081 21.1775 9.62772 21.375 10.125 21.375H28.875C29.3723 21.375 29.8492 21.1775 30.2008 20.8258C30.5525 20.4742 30.75 19.9973 30.75 19.5C30.75 19.0027 30.5525 18.5258 30.2008 18.1742C29.8492 17.8225 29.3723 17.625 28.875 17.625ZM32.625 0.75H6.375C4.88316 0.75 3.45242 1.34263 2.39752 2.39752C1.34263 3.45242 0.75 4.88316 0.75 6.375V25.125C0.75 26.6168 1.34263 28.0476 2.39752 29.1025C3.45242 30.1574 4.88316 30.75 6.375 30.75H28.1063L35.0438 37.7062C35.219 37.88 35.4267 38.0175 35.6552 38.1108C35.8836 38.2041 36.1282 38.2514 36.375 38.25C36.621 38.2563 36.865 38.205 37.0875 38.1C37.4299 37.9593 37.723 37.7205 37.9299 37.4135C38.1368 37.1065 38.2482 36.7452 38.25 36.375V6.375C38.25 4.88316 37.6574 3.45242 36.6025 2.39752C35.5476 1.34263 34.1168 0.75 32.625 0.75ZM34.5 31.8563L30.2062 27.5438C30.031 27.37 29.8233 27.2325 29.5948 27.1392C29.3664 27.0459 29.1218 26.9986 28.875 27H6.375C5.87772 27 5.40081 26.8025 5.04918 26.4508C4.69754 26.0992 4.5 25.6223 4.5 25.125V6.375C4.5 5.87772 4.69754 5.40081 5.04918 5.04918C5.40081 4.69754 5.87772 4.5 6.375 4.5H32.625C33.1223 4.5 33.5992 4.69754 33.9508 5.04918C34.3025 5.40081 34.5 5.87772 34.5 6.375V31.8563Z" fill="#1B1B1B"/>
</svg>
